<svg xmlns="http://www.w3.org/2000/svg" data-name="Layer 1" viewBox="0 0 100 100" x="0px" y="0px" fill="#1c63af"><title>Artboard 17</title><path d="M87.81,35.5l-3.32,3.32,3.32,3.32a4.29,4.29,0,0,1-6.07,6.07L78.42,44.9,75.1,48.21A4.29,4.29,0,1,1,69,42.14l3.32-3.32L69,35.5a4.29,4.29,0,1,1,6.07-6.07l3.32,3.32,3.32-3.32a4.29,4.29,0,1,1,6.07,6.07ZM81.5,89.4a13.17,13.17,0,0,1-12.58-9.82,33.29,33.29,0,0,1-27.4-34.45L39.28,45,37,44.87a2.66,2.66,0,0,1-1.92-4.32l9.51-11.82a2.66,2.66,0,0,1,4.32.24L57,41.77a2.66,2.66,0,0,1-2.39,4.08l-2.29-.13L50.1,45.6A24.72,24.72,0,0,0,69.58,71a13.18,13.18,0,0,1,12.05-7.89h.14a13.16,13.16,0,0,1-.13,26.32Zm.09-8.59h.05a4.57,4.57,0,0,0,0-9.15h0a4.57,4.57,0,0,0,0,9.15ZM25.09,96.74a4.29,4.29,0,0,0,6.07,0l3.32-3.32,3.32,3.32a4.29,4.29,0,0,0,6.07-6.07l-3.32-3.32L43.87,84A4.29,4.29,0,0,0,37.8,78l-3.32,3.32L31.16,78A4.29,4.29,0,0,0,25.09,84l3.32,3.32-3.32,3.32A4.29,4.29,0,0,0,25.09,96.74Zm4.28-76.56a4.29,4.29,0,0,0,6.07,0L46.29,9.33a4.29,4.29,0,1,0-6.07-6.07L32.4,11.08,28.74,7.42a4.29,4.29,0,1,0-6.07,6.07ZM6.46,60.92a4.29,4.29,0,0,0,6.07,0l3.32-3.32,3.32,3.32a4.29,4.29,0,0,0,6.07-6.07l-3.32-3.32,3.32-3.32a4.29,4.29,0,0,0-6.07-6.07l-3.32,3.32-3.32-3.32a4.29,4.29,0,0,0-6.07,6.07l3.32,3.32L6.46,54.85A4.29,4.29,0,0,0,6.46,60.92Z"></path></svg>
